<?xml version="1.0" standalone="no"?>
<!DOCTYPE svg PUBLIC "-//W3C//DTD SVG 20010904//EN"
 "http://www.w3.org/TR/2001/REC-SVG-20010904/DTD/svg10.dtd">
<svg version="1.0" xmlns="http://www.w3.org/2000/svg"
 width="600.000000pt" height="600.000000pt" viewBox="0 0 600.000000 600.000000"
 preserveAspectRatio="xMidYMid meet">
 <style>
 svg{
    background: #eddb4e;
 }
</style>
<metadata>
Created by potrace 1.14, written by Peter Selinger 2001-2017
</metadata>
<g transform="translate(0.000000,600.000000) scale(0.100000,-0.100000)"
fill="#000000" stroke="none">
<path d="M4390 3265 c-104 -17 -228 -60 -307 -106 -32 -19 -96 -72 -143 -119
-68 -68 -94 -102 -128 -170 -60 -123 -76 -199 -75 -355 1 -202 47 -341 157
-482 113 -143 275 -247 606 -388 316 -134 414 -203 446 -312 41 -139 -28 -266
-175 -325 -49 -20 -74 -23 -196 -23 -123 0 -148 3 -205 24 -119 44 -225 129
-306 247 -20 30 -41 54 -45 54 -7 0 -437 -246 -448 -256 -16 -15 78 -153 169
-248 186 -195 424 -300 735 -326 433 -35 811 126 958 408 59 113 79 191 84
337 10 257 -53 438 -209 594 -120 121 -266 209 -548 331 -268 116 -329 149
-390 210 -76 75 -99 161 -69 261 45 148 255 211 428 127 53 -25 130 -100 162
-158 13 -22 26 -40 30 -40 17 0 429 273 429 284 0 21 -97 152 -155 210 -100
100 -216 165 -364 202 -122 31 -318 40 -441 19z"/>
<path d="M2698 2233 c-3 -928 -5 -1022 -21 -1069 -40 -120 -114 -174 -247
-182 -121 -7 -178 14 -260 96 -36 37 -81 93 -99 125 -18 31 -37 57 -43 57 -8
0 -431 -252 -447 -266 -16 -14 81 -167 157 -247 175 -184 391 -269 682 -270
437 0 716 198 812 578 l23 90 0 1050 0 1050 -277 3 -277 2 -3 -1017z"/>
</g>
</svg>
